<svg xmlns="http://www.w3.org/2000/svg" width="161.118" height="162.674" viewBox="0 0 161.118 162.674">
  <path id="Icon_ionic-ios-happy" data-name="Icon ionic-ios-happy" d="M82.434,3.375C38.762,3.375,3.375,39.11,3.375,83.212s35.387,79.837,79.059,79.837,79.059-35.735,79.059-79.837S126.107,3.375,82.434,3.375ZM109.8,61.717a9.212,9.212,0,1,1-9.122,9.212A9.145,9.145,0,0,1,109.8,61.717Zm-54.733,0a9.212,9.212,0,1,1-9.122,9.212A9.145,9.145,0,0,1,55.068,61.717Zm27.367,64.868a37.371,37.371,0,0,1-35.8-27.137,3.078,3.078,0,0,1,2.927-3.953h65.718a3.082,3.082,0,0,1,2.927,3.953A37.291,37.291,0,0,1,82.434,126.585Z" transform="translate(-1.875 -1.875)" fill="#23c225" stroke="rgba(255,255,255,0.77)" stroke-width="3"/>
</svg>
