<svg xmlns="http://www.w3.org/2000/svg" width="156.664" height="156.664" viewBox="0 0 156.664 156.664">
  <path id="Icon_awesome-sad-cry" data-name="Icon awesome-sad-cry" d="M76.832.563A76.77,76.77,0,0,0,37.177,143.1v-55.8a4.957,4.957,0,1,1,9.914,0v60.939a76.958,76.958,0,0,0,59.483,0V87.308a4.957,4.957,0,1,1,9.914,0v55.8A76.77,76.77,0,0,0,76.832.563ZM56.54,67.636c-4.585-4.089-14.313-4.089-18.9,0L34.7,70.269a3.707,3.707,0,0,1-6.134-3.346C29.8,59.116,39.159,53.88,47.122,53.88S64.44,59.116,65.679,66.923a3.707,3.707,0,0,1-6.134,3.346L56.54,67.636Zm20.292,59.328c-8.21,0-14.871-8.891-14.871-19.828s6.661-19.828,14.871-19.828S91.7,96.2,91.7,107.136,85.042,126.963,76.832,126.963Zm46.409-56.23a3.7,3.7,0,0,1-4.244-.5L116.053,67.6c-4.585-4.089-14.313-4.089-18.9,0l-2.974,2.664a3.707,3.707,0,0,1-6.134-3.346c1.239-7.807,10.6-13.043,18.557-13.043s17.318,5.236,18.557,13.043A3.83,3.83,0,0,1,123.241,70.734Z" transform="translate(1.5 0.938)" fill="#e24848" stroke="#fff" stroke-width="3"/>
</svg>
